<?xml version="1.0" encoding="utf-8"?>
<!-- Generator: Adobe Illustrator 16.0.0, SVG Export Plug-In . SVG Version: 6.00 Build 0)  -->
<!DOCTYPE svg PUBLIC "-//W3C//DTD SVG 1.1//EN" "http://www.w3.org/Graphics/SVG/1.1/DTD/svg11.dtd">
<svg version="1.1" id="Layer_1" xmlns="http://www.w3.org/2000/svg" xmlns:xlink="http://www.w3.org/1999/xlink" x="0px" y="0px"
	 width="600px" height="137px" viewBox="0 63.5 600 137" enable-background="new 0 63.5 600 137" xml:space="preserve">
<path fill="#F2F2F2" d="M21.65,127.204h24.23l-2.229,9.469H8.005L21.744,79.21h11.418L21.65,127.204z M91.923,125.44
	c0-1.114,0.078-2.212,0.232-3.295c0.154-1.081,0.357-2.182,0.604-3.295l6.221-25.807H87.561l-6.127,25.713
	c-0.311,1.053-0.511,1.982-0.603,2.785c-0.093,0.806-0.201,1.641-0.325,2.508c-0.929,1.052-1.903,1.934-2.924,2.645
	c-1.021,0.712-2.399,1.067-4.131,1.067c-3.096,0-4.641-1.608-4.641-4.826c0-1.175,0.123-2.522,0.371-4.039
	c0.247-1.515,0.618-3.203,1.114-5.059l4.921-20.794H63.795l-5.198,21.536c-0.867,3.776-1.299,7.088-1.299,9.933
	c0,4.085,0.989,7.304,2.97,9.655c1.979,2.353,5.478,3.526,10.49,3.526c2.352,0,4.517-0.495,6.498-1.485
	c1.981-0.989,3.59-1.949,4.828-2.877c0.061,0.187,0.154,0.449,0.278,0.79c0.124,0.34,0.279,0.728,0.465,1.159
	c0.185,0.435,0.371,0.836,0.556,1.207c0.186,0.372,0.339,0.681,0.464,0.929l10.026-1.671c-0.558-1.671-1.021-3.356-1.393-5.059
	C92.109,128.984,91.923,127.236,91.923,125.44z M137.318,92.578c-1.299,0-2.771,0.263-4.409,0.789
	c-1.641,0.527-3.173,1.346-4.595,2.459c-0.867-1.174-1.996-2.01-3.388-2.506c-1.393-0.495-2.894-0.742-4.503-0.742
	c-1.796,0-3.637,0.202-5.523,0.604c-1.889,0.403-3.978,1.007-6.267,1.81l-10.026,41.682h9.284l8.447-35.277
	c0.928-0.308,1.918-0.463,2.971-0.463c0.928,0,1.547,0.265,1.856,0.789c0.309,0.526,0.465,1.1,0.465,1.717
	c0,0.497-0.062,0.991-0.186,1.486c-0.125,0.496-0.247,0.928-0.371,1.3l-3.249,13.832h9.004l3.156-13.183
	c0.371-1.545,0.557-3.031,0.557-4.456c0.495-0.432,1.021-0.802,1.579-1.114c0.556-0.309,1.145-0.464,1.763-0.464
	c1.67,0,2.506,0.929,2.506,2.785c0,0.247-0.032,0.603-0.092,1.067c-0.063,0.464-0.156,0.915-0.279,1.347l-7.241,30.634h9.284
	l7.055-29.8c0.247-0.866,0.417-1.717,0.51-2.552c0.094-0.835,0.14-1.625,0.14-2.368c0-3.217-0.789-5.584-2.367-7.102
	C141.82,93.336,139.793,92.578,137.318,92.578z M180.763,127.436c-1.424,0.217-2.661,0.324-3.713,0.324
	c-3.156,0-4.734-1.546-4.734-4.641c0-0.989,0.186-2.135,0.557-3.435l6.312-26.642h-23.487l-2.32,9.468h12.067l-3.713,15.782
	c-0.682,2.723-1.021,5.106-1.021,7.148c0,3.899,1.051,6.916,3.156,9.051c2.103,2.135,5.353,3.202,9.748,3.202
	c1.731,0,3.604-0.154,5.615-0.463c2.01-0.311,4.162-0.896,6.453-1.764l-0.186-9.283
	C183.764,126.803,182.186,127.221,180.763,127.436z M173.894,87.751c0.928,0,1.856-0.201,2.785-0.604
	c0.928-0.402,1.763-0.943,2.506-1.625c0.744-0.68,1.347-1.515,1.811-2.505c0.464-0.989,0.695-2.042,0.695-3.156
	c0-2.352-0.665-4.054-1.995-5.106c-1.331-1.051-2.893-1.578-4.688-1.578c-0.992,0-1.95,0.202-2.879,0.603
	c-0.927,0.403-1.749,0.945-2.459,1.624c-0.712,0.682-1.286,1.532-1.718,2.553c-0.434,1.021-0.65,2.121-0.65,3.296
	c0,2.229,0.604,3.868,1.811,4.92C170.32,87.226,171.912,87.751,173.894,87.751z M221.051,92.114c-3.527,0-6.839,0.31-9.933,0.929
	c-3.095,0.619-5.601,1.238-7.52,1.856l-10.026,41.775h11.419l8.169-33.698c0.866-0.372,1.763-0.634,2.691-0.789
	c0.928-0.154,1.826-0.232,2.693-0.232c2.042,0,3.449,0.543,4.224,1.625c0.774,1.083,1.161,2.337,1.161,3.76
	c0,1.053-0.125,2.105-0.371,3.156c-0.248,1.053-0.465,2.075-0.65,3.063l-5.662,23.116h11.417l6.035-24.602
	c0.309-1.36,0.54-2.66,0.695-3.897c0.154-1.239,0.232-2.382,0.232-3.436c0-3.96-1.129-7.055-3.388-9.283
	C229.979,93.228,226.25,92.114,221.051,92.114z M284.362,103.904c0,3.156-0.775,5.833-2.321,8.03
	c-1.547,2.197-3.683,3.977-6.405,5.337c-2.724,1.363-5.927,2.354-9.608,2.971c-3.682,0.619-7.658,0.927-11.928,0.927
	c0,1.115,0.185,2.122,0.556,3.019c0.372,0.897,0.975,1.655,1.81,2.274s1.95,1.1,3.341,1.438c1.394,0.341,3.142,0.511,5.246,0.511
	c2.474,0,4.827-0.263,7.056-0.79c2.227-0.525,3.867-1.035,4.919-1.532l0.743,8.634c-1.485,0.743-3.559,1.438-6.219,2.088
	c-2.661,0.651-5.571,0.976-8.727,0.976c-3.526,0-6.561-0.451-9.097-1.347c-2.539-0.896-4.611-2.149-6.219-3.759
	c-1.61-1.608-2.785-3.512-3.529-5.709c-0.742-2.195-1.112-4.625-1.112-7.287c0-3.588,0.603-7.069,1.81-10.443
	c1.207-3.372,2.97-6.327,5.291-8.866c2.322-2.536,5.136-4.579,8.448-6.126c3.31-1.546,7.102-2.321,11.372-2.321
	s7.765,1.054,10.489,3.157C282.999,97.19,284.362,100.128,284.362,103.904z M273.501,105.481c0-1.423-0.511-2.521-1.532-3.295
	c-1.02-0.774-2.459-1.161-4.316-1.161c-2.848,0-5.555,0.974-8.123,2.924c-2.569,1.95-4.349,5.059-5.337,9.329
	c3.898,0,7.101-0.246,9.608-0.742c2.507-0.495,4.469-1.128,5.894-1.903c1.423-0.773,2.415-1.625,2.971-2.553
	C273.223,107.152,273.501,106.286,273.501,105.481z M314.255,91.928c-6.375,0-11.157,1.363-14.342,4.085
	c-3.189,2.724-4.782,6.344-4.782,10.86c0,1.611,0.216,3.003,0.649,4.178c0.434,1.176,1.083,2.213,1.949,3.109
	c0.866,0.898,1.951,1.688,3.25,2.367c1.299,0.683,2.815,1.332,4.549,1.95c1.423,0.556,2.6,1.038,3.527,1.439
	c0.93,0.403,1.654,0.805,2.182,1.207c0.525,0.403,0.896,0.82,1.113,1.253c0.217,0.433,0.324,0.928,0.324,1.485
	c0,1.176-0.619,2.198-1.855,3.064c-1.238,0.868-3.496,1.299-6.776,1.299c-3.032,0-5.632-0.401-7.796-1.207
	c-2.167-0.803-3.869-1.546-5.107-2.227l-4.27,9.005c0.558,0.31,1.315,0.696,2.274,1.159c0.959,0.465,2.15,0.915,3.576,1.347
	c1.422,0.433,3.093,0.804,5.011,1.114c1.919,0.31,4.146,0.464,6.684,0.464c3.527,0,6.559-0.434,9.098-1.299
	c2.537-0.866,4.596-1.997,6.174-3.389c1.578-1.393,2.737-2.954,3.481-4.688c0.743-1.731,1.112-3.496,1.112-5.291
	c0-1.731-0.2-3.217-0.603-4.456c-0.403-1.237-1.055-2.321-1.95-3.249c-0.897-0.929-2.011-1.764-3.342-2.507
	c-1.33-0.742-2.923-1.484-4.779-2.227c-1.549-0.558-2.787-1.052-3.715-1.485s-1.64-0.851-2.136-1.253
	c-0.495-0.402-0.821-0.804-0.974-1.208c-0.155-0.401-0.232-0.882-0.232-1.438c0-0.804,0.232-1.469,0.697-1.996
	c0.463-0.525,1.034-0.943,1.717-1.254c0.682-0.309,1.405-0.511,2.182-0.604c0.772-0.092,1.47-0.14,2.09-0.14
	c2.783,0,5.089,0.219,6.914,0.651c1.824,0.434,3.449,0.991,4.875,1.671l4.178-9.004c-1.549-0.743-3.639-1.393-6.268-1.95
	C320.303,92.206,317.41,91.928,314.255,91.928z M372.736,92.717c-1.053-0.216-2.213-0.386-3.48-0.511
	c-1.268-0.123-2.738-0.185-4.408-0.185c-4.271,0-8.17,0.695-11.697,2.088c-3.527,1.392-6.575,3.311-9.144,5.755
	c-2.567,2.447-4.565,5.371-5.987,8.773c-1.425,3.404-2.137,7.117-2.137,11.14c0,2.414,0.342,4.72,1.021,6.916
	c0.681,2.197,1.794,4.101,3.342,5.709c1.547,1.61,3.589,2.893,6.127,3.853c2.536,0.958,5.693,1.438,9.47,1.438
	c2.164,0,4.037-0.078,5.615-0.23c1.578-0.156,2.955-0.373,4.131-0.651c1.177-0.277,2.196-0.603,3.063-0.974s1.672-0.743,2.414-1.114
	l-1.114-9.098c-1.054,0.496-2.615,0.975-4.688,1.439c-2.074,0.464-4.318,0.695-6.729,0.695c-2.229,0-4.071-0.216-5.525-0.648
	c-1.453-0.433-2.598-1.022-3.434-1.765c-0.836-0.743-1.409-1.624-1.719-2.646c-0.311-1.02-0.463-2.149-0.463-3.388
	c0-2.785,0.433-5.259,1.299-7.426c0.865-2.166,2.089-3.992,3.666-5.477c1.58-1.485,3.422-2.614,5.524-3.388s4.425-1.161,6.964-1.161
	c1.979,0,3.742,0.171,5.291,0.511c1.545,0.34,2.813,0.728,3.803,1.159l4.086-9.096c-0.803-0.372-1.623-0.697-2.459-0.976
	C374.732,93.182,373.79,92.934,372.736,92.717z M423.607,103.904c0,3.156-0.773,5.833-2.318,8.03
	c-1.549,2.197-3.684,3.977-6.408,5.337c-2.723,1.363-5.925,2.354-9.605,2.971c-3.683,0.619-7.657,0.927-11.928,0.927
	c0,1.115,0.186,2.122,0.557,3.019c0.369,0.897,0.976,1.655,1.811,2.274s1.947,1.1,3.342,1.438c1.393,0.341,3.141,0.511,5.245,0.511
	c2.475,0,4.826-0.263,7.055-0.79c2.229-0.525,3.867-1.035,4.921-1.532l0.742,8.634c-1.485,0.743-3.56,1.438-6.222,2.088
	c-2.661,0.651-5.568,0.976-8.725,0.976c-3.528,0-6.562-0.451-9.099-1.347c-2.539-0.896-4.609-2.149-6.22-3.759
	c-1.608-1.608-2.784-3.512-3.526-5.709c-0.744-2.195-1.113-4.625-1.113-7.287c0-3.588,0.604-7.069,1.81-10.443
	c1.207-3.372,2.972-6.327,5.292-8.866c2.319-2.536,5.137-4.579,8.445-6.126c3.312-1.546,7.102-2.321,11.372-2.321
	c4.27,0,7.766,1.054,10.492,3.157C422.246,97.19,423.607,100.128,423.607,103.904z M412.748,105.481
	c0-1.423-0.512-2.521-1.531-3.295c-1.021-0.774-2.461-1.161-4.316-1.161c-2.85,0-5.557,0.974-8.124,2.924
	c-2.567,1.95-4.349,5.059-5.337,9.329c3.897,0,7.102-0.246,9.606-0.742c2.507-0.495,4.471-1.128,5.896-1.903
	c1.424-0.773,2.413-1.625,2.97-2.553C412.469,107.152,412.748,106.286,412.748,105.481z M453.13,92.114
	c-3.528,0-6.84,0.31-9.935,0.929c-3.096,0.619-5.603,1.238-7.52,1.856l-10.024,41.775h11.417l8.171-33.698
	c0.864-0.372,1.764-0.634,2.69-0.789c0.93-0.154,1.824-0.232,2.692-0.232c2.042,0,3.449,0.543,4.224,1.625
	c0.772,1.083,1.159,2.337,1.159,3.76c0,1.053-0.125,2.105-0.369,3.156c-0.251,1.053-0.466,2.075-0.649,3.063l-5.664,23.116h11.418
	l6.035-24.602c0.31-1.36,0.54-2.66,0.695-3.897c0.153-1.239,0.232-2.382,0.232-3.436c0-3.96-1.131-7.055-3.391-9.283
	C462.055,93.228,458.326,92.114,453.13,92.114z M511.983,92.717c-1.056-0.216-2.214-0.386-3.48-0.511
	c-1.27-0.123-2.738-0.185-4.41-0.185c-4.271,0-8.168,0.695-11.696,2.088c-3.526,1.392-6.575,3.311-9.144,5.755
	c-2.569,2.447-4.562,5.371-5.987,8.773c-1.425,3.404-2.137,7.117-2.137,11.14c0,2.414,0.34,4.72,1.021,6.916
	c0.682,2.197,1.794,4.101,3.343,5.709c1.547,1.61,3.589,2.893,6.128,3.853c2.536,0.958,5.69,1.438,9.467,1.438
	c2.166,0,4.038-0.078,5.616-0.23c1.579-0.156,2.953-0.373,4.131-0.651c1.175-0.277,2.196-0.603,3.063-0.974
	c0.866-0.371,1.672-0.743,2.413-1.114l-1.113-9.098c-1.055,0.496-2.614,0.975-4.688,1.439c-2.073,0.464-4.314,0.695-6.729,0.695
	c-2.229,0-4.069-0.216-5.525-0.648c-1.453-0.433-2.598-1.022-3.434-1.765c-0.836-0.743-1.408-1.624-1.719-2.646
	c-0.311-1.02-0.463-2.149-0.463-3.388c0-2.785,0.433-5.259,1.301-7.426c0.863-2.166,2.088-3.992,3.666-5.477
	c1.577-1.485,3.419-2.614,5.522-3.388s4.422-1.161,6.962-1.161c1.979,0,3.743,0.171,5.293,0.511c1.543,0.34,2.813,0.728,3.806,1.159
	l4.085-9.096c-0.807-0.372-1.624-0.697-2.461-0.976C513.98,93.182,513.036,92.934,511.983,92.717z M562.854,103.904
	c0,3.156-0.773,5.833-2.317,8.03c-1.55,2.197-3.685,3.977-6.407,5.337c-2.723,1.363-5.926,2.354-9.606,2.971
	c-3.684,0.619-7.658,0.927-11.93,0.927c0,1.115,0.187,2.122,0.557,3.019c0.372,0.897,0.975,1.655,1.811,2.274
	c0.837,0.619,1.948,1.1,3.344,1.438c1.393,0.341,3.14,0.511,5.243,0.511c2.475,0,4.829-0.263,7.055-0.79
	c2.229-0.525,3.868-1.035,4.92-1.532l0.745,8.634c-1.487,0.743-3.562,1.438-6.222,2.088c-2.661,0.651-5.57,0.976-8.727,0.976
	c-3.526,0-6.562-0.451-9.098-1.347c-2.538-0.896-4.61-2.149-6.219-3.759c-1.61-1.608-2.787-3.512-3.529-5.709
	c-0.74-2.195-1.111-4.625-1.111-7.287c0-3.588,0.604-7.069,1.81-10.443c1.206-3.372,2.971-6.327,5.293-8.866
	c2.32-2.536,5.134-4.579,8.444-6.126c3.312-1.546,7.103-2.321,11.373-2.321c4.27,0,7.766,1.054,10.49,3.157
	C561.492,97.19,562.854,100.128,562.854,103.904z M551.996,105.481c0-1.423-0.516-2.521-1.533-3.295
	c-1.021-0.774-2.461-1.161-4.317-1.161c-2.849,0-5.554,0.974-8.122,2.924c-2.568,1.95-4.349,5.059-5.339,9.329
	c3.9,0,7.103-0.246,9.608-0.742c2.506-0.495,4.47-1.128,5.895-1.903c1.425-0.773,2.413-1.625,2.973-2.553
	C551.716,107.152,551.996,106.286,551.996,105.481z M584.269,89.747c0.573,1.001,1.137,2.054,1.69,3.16h-3.638
	c-0.556-1.021-1.056-1.925-1.501-2.713c-0.446-0.787-0.861-1.521-1.245-2.201h-2.358v4.914h-3.384V77.718
	c0.552-0.171,1.201-0.31,1.945-0.416c0.745-0.104,1.521-0.158,2.33-0.158c2.425,0,4.213,0.468,5.359,1.403
	c1.148,0.937,1.726,2.298,1.726,4.085c0,2.085-0.831,3.596-2.489,4.531C583.171,87.887,583.693,88.748,584.269,89.747z
	 M581.81,82.44c0-0.851-0.34-1.414-1.021-1.691c-0.682-0.277-1.382-0.415-2.105-0.415c-0.299,0-0.564,0.011-0.8,0.032
	c-0.232,0.021-0.456,0.054-0.667,0.095v4.34h1.211c1.147,0,1.998-0.148,2.553-0.446C581.534,84.057,581.81,83.419,581.81,82.44z
	 M592.979,85.057c0,2.596-0.403,4.861-1.212,6.796c-0.81,1.937-1.861,3.553-3.159,4.851c-1.297,1.298-2.777,2.277-4.437,2.936
	c-1.659,0.659-3.339,0.989-5.042,0.989c-1.746,0-3.436-0.33-5.073-0.989c-1.639-0.659-3.106-1.627-4.403-2.903
	c-1.297-1.277-2.34-2.883-3.126-4.819c-0.789-1.935-1.183-4.18-1.183-6.733c0-2.595,0.404-4.871,1.212-6.829
	c0.811-1.956,1.863-3.583,3.161-4.882c1.296-1.297,2.775-2.266,4.437-2.904c1.658-0.638,3.339-0.957,5.041-0.957
	c1.701,0,3.383,0.319,5.042,0.957c1.658,0.638,3.138,1.607,4.435,2.904c1.298,1.298,2.341,2.915,3.128,4.851
	C592.586,80.26,592.979,82.504,592.979,85.057z M589.277,85.184c0-2.042-0.287-3.818-0.861-5.329
	c-0.575-1.51-1.342-2.765-2.298-3.766c-0.955-1-2.043-1.754-3.255-2.266c-1.213-0.51-2.438-0.766-3.67-0.766
	c-1.277,0-2.522,0.255-3.733,0.766c-1.214,0.511-2.297,1.266-3.255,2.266c-0.957,1.001-1.725,2.256-2.3,3.766
	c-0.573,1.511-0.859,3.244-0.859,5.201c0,2.042,0.286,3.819,0.859,5.329c0.575,1.511,1.343,2.768,2.3,3.766
	c0.958,1,2.041,1.754,3.255,2.265c1.211,0.511,2.456,0.766,3.733,0.766c1.275,0,2.511-0.255,3.701-0.766
	c1.189-0.511,2.269-1.265,3.224-2.265c0.956-0.998,1.723-2.244,2.298-3.734C588.99,88.928,589.277,87.184,589.277,85.184z
	 M21.33,173.95c-1-0.58-2.079-1.071-3.24-1.474c-1.161-0.404-2.24-0.8-3.238-1.187c-1-0.388-1.83-0.812-2.49-1.282
	c-0.662-0.467-0.992-1.039-0.992-1.716c0-1.901,1.74-2.853,5.222-2.853c0.612,0,1.248,0.031,1.909,0.096
	c0.66,0.064,1.281,0.154,1.861,0.267c0.581,0.114,1.095,0.242,1.548,0.388c0.451,0.146,0.806,0.283,1.063,0.41l0.725-3.578
	c-0.935-0.289-2.055-0.521-3.359-0.699c-1.306-0.178-2.572-0.268-3.795-0.268c-3.127,0-5.424,0.604-6.89,1.813
	c-1.467,1.209-2.2,2.716-2.2,4.521c0,1.291,0.331,2.336,0.992,3.144c0.66,0.807,1.481,1.481,2.465,2.03
	c0.982,0.549,2.055,1.008,3.216,1.379c1.16,0.371,2.23,0.748,3.214,1.136c0.983,0.387,1.806,0.839,2.466,1.354
	c0.661,0.514,0.991,1.176,0.991,1.981c0,1.836-1.821,2.755-5.462,2.755c-1.419,0-2.749-0.169-3.989-0.507
	c-1.242-0.339-2.427-0.767-3.555-1.282l-0.773,3.627c1.161,0.516,2.385,0.902,3.675,1.161c1.289,0.257,2.708,0.386,4.254,0.386
	c3.417,0,5.915-0.557,7.494-1.668s2.37-2.683,2.37-4.714c0-1.257-0.331-2.296-0.992-3.119
	C23.159,175.23,22.328,174.529,21.33,173.95z M71.129,181.686c-0.709,0.193-1.644,0.291-2.803,0.291
	c-0.839,0-1.548-0.08-2.128-0.242c-0.581-0.16-1.057-0.459-1.427-0.896c-0.371-0.435-0.637-1.005-0.797-1.715
	c-0.163-0.71-0.242-1.628-0.242-2.757v-10.443h9.477v-3.336h-9.477v-6.963l-3.964,0.678v6.285H55.03v3.336h4.738v10.443
	c0,1.516,0.112,2.846,0.338,3.988c0.225,1.145,0.636,2.103,1.232,2.877c0.596,0.773,1.427,1.354,2.49,1.74
	c1.064,0.387,2.434,0.58,4.11,0.58c1.451,0,2.667-0.16,3.65-0.481c0.982-0.324,1.7-0.581,2.151-0.774l-0.58-3.384
	C72.515,181.234,71.839,181.492,71.129,181.686z M119.672,164.884c1.645,1.886,2.465,4.747,2.465,8.582v1.402h-16.051
	c0.161,2.321,0.925,4.086,2.297,5.294c1.369,1.21,3.294,1.814,5.777,1.814c1.418,0,2.627-0.115,3.626-0.34s1.757-0.468,2.272-0.725
	l0.533,3.384c-0.484,0.259-1.355,0.532-2.611,0.821c-1.257,0.292-2.676,0.436-4.254,0.436c-1.935,0-3.636-0.298-5.101-0.894
	c-1.467-0.597-2.684-1.41-3.65-2.443c-0.967-1.03-1.692-2.262-2.176-3.698c-0.483-1.434-0.726-2.988-0.726-4.666
	c0-1.998,0.307-3.737,0.919-5.221c0.612-1.482,1.418-2.708,2.418-3.675c0.999-0.968,2.127-1.692,3.384-2.176
	c1.257-0.482,2.546-0.726,3.868-0.726C115.691,162.057,118.028,162.998,119.672,164.884z M118.077,171.63
	c0-1.901-0.5-3.407-1.499-4.521c-1-1.111-2.321-1.668-3.964-1.668c-0.936,0-1.782,0.178-2.539,0.531
	c-0.759,0.354-1.411,0.822-1.958,1.402c-0.549,0.579-0.984,1.24-1.305,1.982c-0.324,0.74-0.533,1.496-0.629,2.271L118.077,171.63
	L118.077,171.63z M163.43,162.104c-3.354,0-6.673,0.565-9.961,1.692v21.228h3.965v-18.615c2.031-0.549,4.029-0.821,5.996-0.821
	c0.934,0,1.796,0.042,2.586,0.12c0.79,0.08,1.7,0.266,2.732,0.557l0.725-3.529c-1.129-0.258-2.161-0.428-3.095-0.508
	C165.443,162.145,164.461,162.104,163.43,162.104z M215.985,164.884c1.644,1.886,2.465,4.747,2.465,8.582v1.402h-16.051
	c0.16,2.321,0.925,4.086,2.296,5.294c1.369,1.21,3.295,1.814,5.777,1.814c1.419,0,2.627-0.115,3.627-0.34
	c0.999-0.225,1.756-0.468,2.271-0.725l0.533,3.384c-0.483,0.259-1.354,0.532-2.611,0.821c-1.257,0.292-2.676,0.436-4.255,0.436
	c-1.934,0-3.634-0.298-5.1-0.894c-1.468-0.597-2.684-1.41-3.65-2.443c-0.967-1.03-1.693-2.262-2.176-3.698
	c-0.483-1.434-0.725-2.988-0.725-4.666c0-1.998,0.306-3.737,0.918-5.221c0.612-1.482,1.417-2.708,2.417-3.675
	c0.998-0.968,2.128-1.692,3.385-2.176c1.256-0.482,2.545-0.726,3.868-0.726C212.004,162.057,214.34,162.998,215.985,164.884z
	 M214.389,171.63c0-1.901-0.5-3.407-1.499-4.521c-0.999-1.111-2.321-1.668-3.965-1.668c-0.935,0-1.782,0.178-2.538,0.531
	c-0.759,0.354-1.411,0.822-1.959,1.402c-0.548,0.579-0.984,1.24-1.305,1.982c-0.323,0.74-0.533,1.496-0.629,2.271L214.389,171.63
	L214.389,171.63z M266.099,168.971c0.499,1.449,0.75,3.062,0.75,4.834c0,1.773-0.251,3.377-0.75,4.812
	c-0.5,1.434-1.202,2.668-2.103,3.698c-0.904,1.033-1.983,1.83-3.24,2.393c-1.256,0.564-2.628,0.848-4.11,0.848
	c-1.45,0-2.797-0.281-4.036-0.848c-1.242-0.562-2.313-1.357-3.216-2.393c-0.902-1.03-1.604-2.266-2.103-3.698
	c-0.501-1.435-0.75-3.037-0.75-4.812c0-1.771,0.249-3.385,0.75-4.834c0.499-1.451,1.2-2.685,2.103-3.699
	c0.903-1.014,1.974-1.805,3.216-2.369c1.239-0.562,2.586-0.846,4.036-0.846c1.482,0,2.854,0.282,4.11,0.846
	c1.257,0.564,2.336,1.354,3.24,2.369C264.897,166.286,265.599,167.52,266.099,168.971z M262.738,173.805
	c0-2.546-0.548-4.553-1.643-6.02c-1.098-1.467-2.58-2.199-4.449-2.199c-1.837,0-3.295,0.732-4.376,2.199
	c-1.079,1.467-1.619,3.474-1.619,6.02c0,2.516,0.54,4.506,1.619,5.973c1.081,1.466,2.539,2.199,4.376,2.199
	c1.869,0,3.351-0.733,4.449-2.199C262.19,178.311,262.738,176.318,262.738,173.805z M314.23,168.971
	c0.516,1.449,0.772,3.078,0.772,4.883c0,1.709-0.216,3.28-0.653,4.715c-0.435,1.436-1.062,2.666-1.885,3.699
	c-0.82,1.03-1.829,1.836-3.021,2.416c-1.191,0.58-2.547,0.871-4.061,0.871c-1.193,0-2.242-0.145-3.145-0.437
	c-0.902-0.289-1.579-0.612-2.03-0.968V193h-4.013v-29.734c0.87-0.26,1.99-0.516,3.362-0.773c1.369-0.258,2.94-0.389,4.712-0.389
	c1.612,0,3.08,0.275,4.398,0.822c1.323,0.549,2.45,1.331,3.387,2.346C312.988,166.286,313.715,167.52,314.23,168.971z
	 M310.895,173.854c0-2.61-0.612-4.635-1.836-6.067c-1.228-1.435-2.822-2.15-4.787-2.15c-1.098,0-1.959,0.048-2.588,0.144
	c-0.627,0.098-1.119,0.212-1.475,0.34v14.166c0.451,0.419,1.113,0.807,1.982,1.16c0.869,0.354,1.771,0.533,2.707,0.533
	c1.063,0,1.975-0.209,2.732-0.629c0.758-0.418,1.377-0.992,1.86-1.717c0.483-0.729,0.838-1.578,1.063-2.562
	C310.782,176.086,310.895,175.014,310.895,173.854z M359.921,164.957c-0.677-0.9-1.589-1.604-2.731-2.104
	c-1.145-0.5-2.57-0.75-4.278-0.75c-0.774,0-1.563,0.073-2.369,0.219c-0.808,0.146-1.532,0.347-2.176,0.604v-11.41l-4.015,0.676
	v32.832h4.015v-18.615c0.354-0.16,0.927-0.33,1.717-0.508c0.788-0.178,1.603-0.266,2.44-0.266c2,0,3.385,0.572,4.158,1.715
	c0.771,1.146,1.159,3.104,1.159,5.875v11.799h3.966v-12.668c0-1.515-0.145-2.9-0.436-4.158S360.598,165.859,359.921,164.957z
	 M410.566,168.971c0.501,1.449,0.751,3.062,0.751,4.834c0,1.773-0.25,3.377-0.751,4.812c-0.5,1.434-1.2,2.668-2.104,3.698
	c-0.902,1.033-1.981,1.83-3.24,2.393c-1.256,0.564-2.627,0.848-4.108,0.848c-1.451,0-2.795-0.281-4.037-0.848
	c-1.238-0.562-2.313-1.357-3.216-2.393c-0.901-1.03-1.604-2.266-2.102-3.698c-0.502-1.435-0.751-3.037-0.751-4.812
	c0-1.771,0.249-3.385,0.751-4.834c0.496-1.451,1.199-2.685,2.102-3.699s1.978-1.805,3.216-2.369
	c1.242-0.562,2.586-0.846,4.037-0.846c1.481,0,2.854,0.282,4.108,0.846c1.259,0.564,2.338,1.354,3.24,2.369
	C409.365,166.287,410.066,167.52,410.566,168.971z M407.208,173.805c0-2.546-0.548-4.553-1.644-6.02
	c-1.099-1.467-2.58-2.199-4.45-2.199c-1.835,0-3.295,0.732-4.374,2.199c-1.081,1.467-1.622,3.474-1.622,6.02
	c0,2.516,0.541,4.506,1.622,5.973c1.079,1.466,2.539,2.199,4.374,2.199c1.87,0,3.353-0.733,4.45-2.199
	C406.66,178.311,407.208,176.318,407.208,173.805z M449.027,162.104c-1.258,0-2.604,0.099-4.035,0.291
	c-1.437,0.193-2.878,0.469-4.327,0.822v21.807h4.012v-18.955c0.677-0.127,1.377-0.232,2.104-0.312s1.41-0.12,2.056-0.12
	c0.774,0,1.489,0.097,2.151,0.289c0.66,0.193,1.225,0.541,1.691,1.039c0.466,0.5,0.83,1.202,1.086,2.104
	c0.261,0.902,0.39,2.078,0.39,3.529v12.426h3.965V171.87c0-3.416-0.766-5.897-2.296-7.445
	C454.289,162.878,452.026,162.104,449.027,162.104z M497.692,158.236c0.597-0.58,0.895-1.369,0.895-2.37
	c0-0.997-0.298-1.788-0.895-2.368c-0.599-0.581-1.33-0.87-2.2-0.87c-0.839,0-1.563,0.289-2.176,0.87
	c-0.613,0.58-0.92,1.371-0.92,2.368c0,1.001,0.307,1.79,0.92,2.37c0.611,0.58,1.337,0.871,2.176,0.871
	C496.362,159.107,497.095,158.816,497.692,158.236z M504.703,181.639c-0.789,0.225-1.651,0.338-2.586,0.338
	c-1.228,0-2.146-0.379-2.757-1.138c-0.611-0.756-0.918-2.248-0.918-4.472v-13.779h-10.445v3.336h6.48v10.443
	c0,1.516,0.11,2.846,0.339,3.988c0.225,1.145,0.618,2.103,1.184,2.877c0.564,0.773,1.312,1.354,2.25,1.74
	c0.933,0.387,2.108,0.58,3.526,0.58c0.611,0,1.201-0.049,1.768-0.144c0.562-0.099,1.076-0.212,1.547-0.339
	c0.466-0.131,0.877-0.266,1.232-0.411c0.354-0.146,0.629-0.269,0.82-0.363l-0.578-3.384
	C506.113,181.17,505.492,181.413,504.703,181.639z M551.651,181.807c-0.95,0.114-1.941,0.17-2.975,0.17
	c-1.289,0-2.465-0.162-3.528-0.483c-1.062-0.322-1.977-0.813-2.731-1.474c-0.758-0.66-1.347-1.5-1.765-2.516
	c-0.42-1.016-0.631-2.232-0.631-3.65c0-1.481,0.229-2.748,0.679-3.795c0.452-1.047,1.057-1.902,1.813-2.562
	c0.758-0.659,1.65-1.145,2.684-1.45c1.03-0.306,2.126-0.459,3.287-0.459c0.902,0,1.798,0.058,2.683,0.169
	c0.887,0.112,1.862,0.362,2.926,0.75l0.918-3.433c-1.224-0.388-2.375-0.654-3.457-0.8c-1.08-0.146-2.166-0.217-3.263-0.217
	c-1.709,0-3.312,0.233-4.811,0.7c-1.499,0.468-2.813,1.185-3.941,2.151c-1.128,0.966-2.013,2.193-2.659,3.675
	c-0.643,1.481-0.967,3.239-0.967,5.271c0,1.935,0.299,3.636,0.896,5.102s1.434,2.684,2.514,3.648
	c1.079,0.969,2.369,1.703,3.868,2.203c1.499,0.496,3.148,0.748,4.955,0.748c1.354,0,2.61-0.09,3.771-0.267
	c1.16-0.179,2.305-0.476,3.432-0.896l-0.581-3.334C553.643,181.443,552.601,181.693,551.651,181.807z"/>
</svg>
